<svg xmlns="http://www.w3.org/2000/svg" viewBox="0 0 150 150">
<!-- SVG created with Arrow, by QuiverAI (https://quiver.ai) -->
  <style type="text/css">.cls-0 {fill:#e11d48;}</style>
  <path class="cls-0" d="m120 113.4-34.1-14.9-1.3-4 11.2 4.4-18.8-27.2 12.4 5.1s-9.4-10.4-11.1-12.5c-0.4-0.5-4.1-16-4.4-17.8-0.1-1.3-1.2 1-1.7 2.1l-9 18 7.2 26.2-16.3-16.5-0.3 0.3-4.3 7.6 10.3 8.4 11.7 19.9-32.1-24.1-0.5-0.5-3.5-13-12.8 31.7-0.2-12.7-6.5 8.2-14.8 10.7 34.6-42.7 7.4 7.6 12.6-19.3 7.6-4.1 9.1-13.8 1.9-3.6 20.2 21.6 13.3 21.4 6.9-6.8 34.3 39.8-24.1-14.5-0.3-0.3-9.8-18.4-0.5 0.5-3.2 4.5 4.1 6.8-15.1-8.6 19.6 30.4"/>
</svg>
